<?xml version="1.0" encoding="UTF-8"?>
<svg width="22px" height="22px" viewBox="0 0 22 22" version="1.1" xmlns="http://www.w3.org/2000/svg" xmlns:xlink="http://www.w3.org/1999/xlink">
    <!-- Generator: Sketch 52.6 (67491) - http://www.bohemiancoding.com/sketch -->
    <title>accept</title>
    <desc>Created with Sketch.</desc>
    <g id="Page-1" stroke="none" stroke-width="1" fill="none" fill-rule="evenodd">
        <g id="2" transform="translate(-240.000000, -607.000000)">
            <g id="accept" transform="translate(241.000000, 608.000000)">
                <path d="M10,0 C4.4771525,0 1.13686838e-13,4.4771525 1.13686838e-13,10 C1.13686838e-13,15.5228475 4.4771525,20 10,20 C15.5228475,20 20,15.5228475 20,10 C20,4.4771525 15.5228475,0 10,0 L10,0 Z" id="accept-path" stroke="#417505" stroke-width="2" fill="#FFFFFF"></path>
                <path d="M9.92,14.333 C9.88448996,14.48127 9.80829762,14.6166846 9.7,14.724 C9.51109615,14.9141138 9.24672212,15.009215 8.98,14.983 C8.55162003,15.012896 8.16030621,14.7402252 8.04,14.328 L5.22,11.51 C4.90401502,11.1538907 4.92003115,10.6132929 5.2565441,10.276515 C5.59305704,9.93973704 6.13364212,9.92329541 6.49,10.239 L8.67,12.423 L13.13,4.516 C13.2593798,4.27926904 13.4789203,4.10485575 13.7387761,4.03235976 C13.9986318,3.95986377 14.2767553,3.99543601 14.51,4.131 C14.9926832,4.42882323 15.1519979,5.05590352 14.87,5.548 L9.92,14.333 Z" id="accept-path" fill="#417505"></path>
            </g>
        </g>
    </g>
</svg>