<?xml version="1.0" encoding="UTF-8"?>
<svg width="22px" height="22px" viewBox="0 0 22 22" version="1.1" xmlns="http://www.w3.org/2000/svg" xmlns:xlink="http://www.w3.org/1999/xlink">
    <!-- Generator: Sketch 52.6 (67491) - http://www.bohemiancoding.com/sketch -->
    <title>cancel</title>
    <desc>Created with Sketch.</desc>
    <g id="Page-1" stroke="none" stroke-width="1" fill="none" fill-rule="evenodd">
        <g id="2" transform="translate(-300.000000, -607.000000)">
            <g id="cancel" transform="translate(301.000000, 608.000000)">
                <path d="M10,20 C4.4771525,20 0,15.5228475 0,10 C0,4.4771525 4.4771525,0 10,0 C15.5228475,0 20,4.4771525 20,10 C20,15.5228475 15.5228475,20 10,20 L10,20 Z" id="cancel-path" stroke="#FF0000" stroke-width="2" fill="#FFFFFF"></path>
                <path d="M13.9216667,13.9216667 C13.7730413,14.0703104 13.571451,14.1538191 13.36125,14.1538191 C13.151049,14.1538191 12.9494587,14.0703104 12.8008333,13.9216667 L9.9875,11.1083333 L7.17416667,13.9216667 C6.97647686,14.1312709 6.68043585,14.2167744 6.40143399,14.1448496 C6.12243213,14.0729249 5.90462448,13.8549548 5.83290774,13.5758994 C5.761191,13.296844 5.8469151,13.0008668 6.05666667,12.8033333 L8.87,9.99 L6.05666667,7.17666667 C5.8469151,6.97913316 5.761191,6.68315597 5.83290774,6.40410057 C5.90462448,6.12504517 6.12243213,5.90707511 6.40143399,5.83515037 C6.68043585,5.76322562 6.97647686,5.84872908 7.17416667,6.05833333 L9.9875,8.87166667 L12.8008333,6.05833333 C12.999822,5.85471648 13.2928991,5.77377445 13.5681822,5.84640696 C13.8434654,5.91903947 14.0584605,6.13403461 14.131093,6.40931776 C14.2037255,6.68460091 14.1227835,6.97767805 13.9191667,7.17666667 L11.1058333,9.99 L13.9191667,12.8033333 C14.2281896,13.1116649 14.229308,13.6119566 13.9216667,13.9216667 L13.9216667,13.9216667 Z" id="cancel-path" fill="#FF0000"></path>
            </g>
        </g>
    </g>
</svg>