<?xml version="1.0" encoding="UTF-8"?>
<svg width="18px" height="18px" viewBox="0 0 18 18" version="1.1" xmlns="http://www.w3.org/2000/svg" xmlns:xlink="http://www.w3.org/1999/xlink">
    <!-- Generator: Sketch 52.6 (67491) - http://www.bohemiancoding.com/sketch -->
    <title>icon</title>
    <desc>Created with Sketch.</desc>
    <g id="Page-1" stroke="none" stroke-width="1" fill="none" fill-rule="evenodd">
        <g id="2" transform="translate(-737.000000, -48.000000)" fill="#B6B6B6">
            <g id="search" transform="translate(428.000000, 35.000000)">
                <path d="M321.5,24 L320.7,24 L320.4,23.7 C321.4,22.6 322,21.1 322,19.5 C322,15.9 319.1,13 315.5,13 C311.9,13 309,15.9 309,19.5 C309,23.1 311.9,26 315.5,26 C317.1,26 318.6,25.4 319.7,24.4 L320,24.7 L320,25.5 L325,30.5 L326.5,29 L321.5,24 L321.5,24 Z M315.5,24 C313,24 311,22 311,19.5 C311,17 313,15 315.5,15 C318,15 320,17 320,19.5 C320,22 318,24 315.5,24 L315.5,24 Z" id="icon"></path>
            </g>
        </g>
    </g>
</svg>